<?xml version="1.0" encoding="UTF-8"?>
<svg version="1.1" xmlns="http://www.w3.org/2000/svg" width="500" height="500">
<path d="M0 0 C165 0 330 0 500 0 C500 165 500 330 500 500 C335 500 170 500 0 500 C0 335 0 170 0 0 Z " fill="#000000" transform="translate(0,0)"/>
<path d="M0 0 C12.21 0 24.42 0 37 0 C41.75 14.375 41.75 14.375 43.22167969 18.84521484 C43.81577637 20.63499756 43.81577637 20.63499756 44.421875 22.4609375 C44.81987305 23.66540527 45.21787109 24.86987305 45.62792969 26.11083984 C46.62864804 29.03669414 47.75293418 31.8949748 48.92016602 34.75830078 C51.13418717 40.23385302 53.01113156 45.79713719 54.85546875 51.40625 C55.20257401 52.45276733 55.54967926 53.49928467 55.90730286 54.57751465 C57.00359894 57.88405894 58.09582627 61.19192703 59.1875 64.5 C60.29044049 67.83644902 61.3942674 71.17259832 62.49983215 74.50817871 C63.18482788 76.57542034 63.86821899 78.64319449 64.54985046 80.71154785 C64.8571962 81.64011597 65.16454193 82.56868408 65.48120117 83.52539062 C65.88613045 84.75255798 65.88613045 84.75255798 66.29924011 86.0045166 C66.96584256 88.03634814 66.96584256 88.03634814 68 90 C68.16902832 89.45738525 68.33805664 88.91477051 68.51220703 88.35571289 C72.02615962 77.12464176 75.65538901 65.94003185 79.47265625 54.80859375 C79.77713684 53.92059586 80.08161743 53.03259796 80.39532471 52.11769104 C81.9192646 47.67911488 83.44963268 43.24284377 84.98681641 38.80883789 C87.97915345 30.14293548 90.85552778 21.47880467 93.3054657 12.64160156 C94.56563564 8.16936669 96.13758042 4.34564569 98 0 C109.55 0 121.1 0 133 0 C131.87510032 6.74939808 131.87510032 6.74939808 130.59912109 10.17944336 C130.31215866 10.95912979 130.02519623 11.73881622 129.72953796 12.54212952 C129.41402481 13.38287521 129.09851166 14.22362091 128.7734375 15.08984375 C128.43798416 15.99733871 128.10253082 16.90483368 127.75691223 17.83982849 C127.02250285 19.82488555 126.28566849 21.80904671 125.54672241 23.79241943 C123.93378312 28.12179299 122.33237563 32.45540371 120.73033142 36.78881836 C119.86474453 39.13001343 118.99856936 41.47099107 118.1318512 43.81176758 C113.51996979 56.27438903 108.96973578 68.75929034 104.42146683 81.24523258 C102.68896803 86.00076741 100.95360824 90.75525023 99.21630859 95.5090332 C98.97469624 96.17016711 98.73308388 96.83130102 98.48414993 97.51246929 C97.52830952 100.12778506 96.57237697 102.74306713 95.61630249 105.35829735 C93.01324773 112.47904792 90.41651324 119.60197038 87.83601379 126.73092651 C86.65837097 129.97960296 85.47319982 133.22548914 84.28555298 136.47052002 C83.77579295 137.86860238 83.26938428 139.26791298 82.76693726 140.66864014 C77.11638101 156.41410449 70.68368734 170.7334332 55.43359375 179.02734375 C47.53925979 182.18254304 40.23895837 182.28399751 31.79882812 182.20581055 C29.74076066 182.18741743 27.6831416 182.18530232 25.625 182.18554688 C14.67651827 182.13686291 14.67651827 182.13686291 11 181 C10.65760381 178.56348426 10.32604341 176.12621655 10 173.6875 C9.90460938 173.01654297 9.80921875 172.34558594 9.7109375 171.65429688 C8.93585125 165.75810503 8.90058427 159.94078054 9 154 C9.6297876 154.02094727 10.2595752 154.04189453 10.90844727 154.06347656 C13.79296571 154.14720099 16.67722768 154.19883621 19.5625 154.25 C21.0484668 154.30027344 21.0484668 154.30027344 22.56445312 154.3515625 C29.04008632 154.43761743 32.64813441 153.6493258 38 150 C38.66 150 39.32 150 40 150 C40.27714844 149.43667969 40.55429688 148.87335938 40.83984375 148.29296875 C41.61559393 146.75975206 42.42075041 145.24107636 43.25390625 143.73828125 C43.68574219 142.93777344 44.11757812 142.13726562 44.5625 141.3125 C44.99691406 140.52488281 45.43132812 139.73726562 45.87890625 138.92578125 C48.61893703 131.77496922 48.26075674 125.94219449 45.37109375 118.97265625 C45.07437775 118.21092606 44.77766174 117.44919586 44.47195435 116.66438293 C43.47790916 114.12317269 42.45741507 111.59342545 41.4375 109.0625 C40.72229513 107.24518055 40.0093863 105.42695608 39.29858398 103.60791016 C38.14448242 100.65588009 36.98860374 97.7046415 35.82575989 94.75604248 C31.09942056 82.76763769 26.55036153 70.71223503 21.99368286 58.65866089 C20.60019117 54.97323498 19.20268862 51.28933814 17.80444336 47.60571289 C13.48546337 36.22577066 9.17981328 24.84092936 4.90234375 13.4453125 C4.52211563 12.4330661 4.14188751 11.4208197 3.75013733 10.37789917 C3.40196457 9.44897858 3.05379181 8.52005798 2.69506836 7.56298828 C2.39048203 6.75064728 2.08589569 5.93830627 1.77207947 5.10134888 C1.1512551 3.41166712 0.56924927 1.70774782 0 0 Z " fill="#FCFCFC" transform="translate(141,168)"/>
<path d="M0 0 C2.18745613 3.28118419 2.3697407 4.78340012 2.7109375 8.63671875 C2.81921875 9.7644873 2.9275 10.89225586 3.0390625 12.05419922 C3.14992188 13.25318848 3.26078125 14.45217773 3.375 15.6875 C4.56568951 35.61473923 4.56568951 35.61473923 13.65625 52.51171875 C22.19644448 57.9579021 31.65893713 58.20096116 41.51757812 58.65917969 C44.79347809 58.81602189 47.85629363 59.02713946 51 60 C51 60.66 51 61.32 51 62 C50.06800781 62.08636719 49.13601563 62.17273438 48.17578125 62.26171875 C34.431914 63.77646246 22.67778162 67.32221838 12.6875 77.3125 C8.5638607 83.8797774 7.42207208 91.42636858 6.4375 99 C5.77077453 103.95281774 5.08060969 108.84380535 3.94921875 113.71484375 C3.11049393 117.33167039 2.63093274 120.85147529 2.375 124.5625 C2.30023438 125.59503906 2.22546875 126.62757813 2.1484375 127.69140625 C2.09945312 128.45324219 2.05046875 129.21507812 2 130 C1.34 129.67 0.68 129.34 0 129 C-0.54663086 126.69360352 -0.54663086 126.69360352 -0.96484375 123.62890625 C-1.12331787 122.50532715 -1.28179199 121.38174805 -1.44506836 120.22412109 C-1.6075708 119.01578613 -1.77007324 117.80745117 -1.9375 116.5625 C-2.2909601 114.08713859 -2.64512852 111.61187822 -3 109.13671875 C-3.47074976 105.79324515 -3.93875609 102.4495515 -4.39453125 99.10400391 C-6.40282512 83.51756615 -6.40282512 83.51756615 -16 71.625 C-17.31294913 70.7197004 -18.64760812 69.84524492 -20 69 C-20.75152344 68.4946875 -21.50304687 67.989375 -22.27734375 67.46875 C-25.5881061 65.68274334 -28.9306874 64.7455924 -32.5625 63.875 C-33.60954102 63.61734863 -33.60954102 63.61734863 -34.67773438 63.35449219 C-40.74560909 61.92757188 -46.76873704 61.23603269 -53 61 C-53 60.67 -53 60.34 -53 60 C-47.27656084 58.89371224 -41.61749512 58.6832355 -35.80859375 58.48242188 C-28.88162989 58.1707673 -22.56465081 56.92360009 -16.1875 54.0625 C-15.45917969 53.74410156 -14.73085938 53.42570312 -13.98046875 53.09765625 C-9.45891657 50.59162831 -8.16889677 47.48565633 -6.69189453 42.72460938 C-5.3569703 37.46781529 -4.66629552 32.11849372 -3.9375 26.75 C-3.61364127 24.45307421 -3.28942331 22.15619904 -2.96484375 19.859375 C-2.80870605 18.73724609 -2.65256836 17.61511719 -2.49169922 16.45898438 C-1.7107252 10.96502217 -0.85797038 5.48239105 0 0 Z " fill="#F6D83A" transform="translate(350,205)"/>
<path d="M0 0 C0.66 0.33 1.32 0.66 2 1 C2.4230957 2.87011719 2.4230957 2.87011719 2.67578125 5.296875 C2.78212891 6.1734375 2.88847656 7.05 2.99804688 7.953125 C3.20580416 9.80100347 3.40390584 11.64999598 3.59179688 13.5 C4.13570354 17.85125335 4.59966082 20.44617389 7.2109375 24.05859375 C10.36628859 26.25496559 12.51607044 26.85359093 16.3125 27.3125 C17.38113281 27.45300781 18.44976562 27.59351563 19.55078125 27.73828125 C20.35902344 27.82464844 21.16726563 27.91101563 22 28 C20.35606727 31.28786546 16.88263031 31.63062627 13.54296875 32.8046875 C9.80356328 34.5623804 7.60587052 36.52652289 6.0234375 40.375 C4.33630192 47.20485007 3.03241707 54.04029434 2 61 C0.07424669 58.11137003 -0.40635262 56.73966357 -1 53.4375 C-1.17015625 52.55578125 -1.3403125 51.6740625 -1.515625 50.765625 C-1.83382701 48.94879418 -2.11629323 47.12527266 -2.359375 45.296875 C-3.01857232 40.89343689 -3.51934318 38.55275534 -6.5 35.125 C-10.57566893 32.27608714 -15.34164791 30.64791507 -20 29 C-20 28.67 -20 28.34 -20 28 C-19.25234375 27.87882812 -18.5046875 27.75765625 -17.734375 27.6328125 C-16.74953125 27.46523437 -15.7646875 27.29765625 -14.75 27.125 C-13.77546875 26.96257812 -12.8009375 26.80015625 -11.796875 26.6328125 C-9.15395377 26.03483311 -7.24694536 25.50127765 -5 24 C-3.28345824 21.11636841 -2.61461805 18.54001893 -2.1484375 15.234375 C-1.95507812 13.90019531 -1.95507812 13.90019531 -1.7578125 12.5390625 C-1.56832031 11.15847656 -1.56832031 11.15847656 -1.375 9.75 C-1.2409375 8.81414062 -1.106875 7.87828125 -0.96875 6.9140625 C-0.63962401 4.61018055 -0.31693851 2.30558476 0 0 Z " fill="#FADB38" transform="translate(284,203)"/>
<path d="M0 0 C0.33 0 0.66 0 1 0 C1.05945801 0.57967529 1.11891602 1.15935059 1.18017578 1.7565918 C1.46754702 4.4040589 1.79582038 7.04491916 2.125 9.6875 C2.2178125 10.59951172 2.310625 11.51152344 2.40625 12.45117188 C2.97213499 16.77390442 3.41461056 20.0669718 6.72265625 23.1015625 C10.23672038 25.13712289 12.29123561 25.62239858 16.3125 25.6875 C18.21067461 25.73186078 20.10979388 25.82068029 22 26 C22.495 26.99 22.495 26.99 23 28 C22.443125 28.08636719 21.88625 28.17273438 21.3125 28.26171875 C15.57142634 29.31877454 10.14545687 30.66877973 6 35 C4.36541518 38.56689759 3.666224 42.14792291 3 46 C2.79761719 47.04285156 2.59523438 48.08570313 2.38671875 49.16015625 C1.89183724 51.76922545 1.43080146 54.37971348 1 57 C-1.27101561 54.72898439 -1.31634761 54.11117763 -1.67578125 51.04296875 C-1.78212891 50.25986328 -1.88847656 49.47675781 -1.99804688 48.66992188 C-2.20604014 47.02793774 -2.40412442 45.38466502 -2.59179688 43.74023438 C-3.35704423 38.27609972 -4.51743897 35.58192377 -9 32 C-12.61697778 29.40319544 -15.58678969 28.51316399 -20 28 C-20 27.34 -20 26.68 -20 26 C-19.18015625 25.90203125 -18.3603125 25.8040625 -17.515625 25.703125 C-16.43796875 25.55359375 -15.3603125 25.4040625 -14.25 25.25 C-13.18265625 25.11078125 -12.1153125 24.9715625 -11.015625 24.828125 C-7.37233817 23.82763691 -6.14447006 23.11656469 -4 20 C-3.13359912 16.99390766 -2.71145436 13.97362715 -2.3125 10.875 C-2.08193582 9.24703855 -1.84897609 7.61941405 -1.61328125 5.9921875 C-1.51829346 5.27401855 -1.42330566 4.55584961 -1.32543945 3.81591797 C-1 2 -1 2 0 0 Z " fill="#F9CE2E" transform="translate(306,280)"/>
<path d="M0 0 C0.58007812 0.40992188 1.16015625 0.81984375 1.7578125 1.2421875 C2.92957031 2.05042969 2.92957031 2.05042969 4.125 2.875 C5.27355469 3.67550781 5.27355469 3.67550781 6.4453125 4.4921875 C12.84506594 8.26941201 19.37118959 8.53982569 26.625 9.0625 C28.67990952 9.21712939 30.73460997 9.3745692 32.7890625 9.53515625 C33.69350098 9.600979 34.59793945 9.66680176 35.52978516 9.73461914 C37.77511177 9.97583974 39.82966916 10.38953511 42 11 C42 11.66 42 12.32 42 13 C41.06800781 13.08636719 40.13601563 13.17273438 39.17578125 13.26171875 C25.431914 14.77646246 13.67778162 18.32221838 3.6875 28.3125 C-0.4361393 34.8797774 -1.57792792 42.42636858 -2.5625 50 C-3.22922547 54.95281774 -3.91939031 59.84380535 -5.05078125 64.71484375 C-5.88950607 68.33167039 -6.36906726 71.85147529 -6.625 75.5625 C-6.69976562 76.59503906 -6.77453125 77.62757813 -6.8515625 78.69140625 C-6.90054687 79.45324219 -6.94953125 80.21507812 -7 81 C-7.66 80.67 -8.32 80.34 -9 80 C-9.4140625 77.27734375 -9.4140625 77.27734375 -9.625 73.9375 C-9.69976562 72.83277344 -9.77453125 71.72804688 -9.8515625 70.58984375 C-9.90054687 69.73519531 -9.94953125 68.88054687 -10 68 C-9.34 68 -8.68 68 -8 68 C-7.98018066 67.25427734 -7.96036133 66.50855469 -7.93994141 65.74023438 C-7.84405589 62.32649812 -7.73463559 58.91332121 -7.625 55.5 C-7.5940625 54.32695312 -7.563125 53.15390625 -7.53125 51.9453125 C-7.20668443 42.31653388 -6.59787589 34.15519418 0.0625 26.6875 C2 25 2 25 4 25 C4.33 24.01 4.66 23.02 5 22 C5.99 22 6.98 22 8 22 C8 21.34 8 20.68 8 20 C9.65 19.67 11.3 19.34 13 19 C13 16.69 13 14.38 13 12 C11.96875 11.835 10.9375 11.67 9.875 11.5 C4.9240663 10.12866195 2.45314704 6.31322557 0 2 C0 1.34 0 0.68 0 0 Z " fill="#E4A41C" transform="translate(359,254)"/>
<path d="M0 0 C-0.99 1.485 -0.99 1.485 -2 3 C-1.236875 3.0825 -0.47375 3.165 0.3125 3.25 C3.54715191 4.15269355 4.35099265 5.13593461 6 8 C6 8.66 6 9.32 6 10 C9.15330554 9.39305845 11.18888867 8.3583335 13.75 6.4375 C14.36359375 5.98246094 14.9771875 5.52742187 15.609375 5.05859375 C16.06828125 4.70925781 16.5271875 4.35992187 17 4 C17.99 4.66 18.98 5.32 20 6 C19.071875 6.598125 18.14375 7.19625 17.1875 7.8125 C10.27401227 13.60356266 10.24118663 25.63294188 9 34 C7.07424669 31.11137003 6.59364738 29.73966357 6 26.4375 C5.82984375 25.55578125 5.6596875 24.6740625 5.484375 23.765625 C5.16617299 21.94879418 4.88370677 20.12527266 4.640625 18.296875 C3.98142768 13.89343689 3.48065682 11.55275534 0.5 8.125 C-3.57566893 5.27608714 -8.34164791 3.64791507 -13 2 C-13 1.67 -13 1.34 -13 1 C-11.20994059 0.63779734 -9.41787943 0.28547531 -7.625 -0.0625 C-6.12839844 -0.35833984 -6.12839844 -0.35833984 -4.6015625 -0.66015625 C-2 -1 -2 -1 0 0 Z " fill="#EBB225" transform="translate(277,230)"/>
<path d="M0 0 C0 0.66 0 1.32 0 2 C1.98 2 3.96 2 6 2 C6 2.99 6 3.98 6 5 C5.37351562 5.45375 4.74703125 5.9075 4.1015625 6.375 C1.45654719 8.4202163 1.15081898 9.78455748 0.375 13 C0.13910156 13.96550781 -0.09679687 14.93101562 -0.33984375 15.92578125 C-1.34325095 20.59845263 -2.22468825 25.2842803 -3 30 C-6.34681899 26.65318101 -6.13293184 21.56284465 -6.76757812 17.00390625 C-7.57142089 11.6479152 -8.94038074 7.01422627 -11 2 C-3.57142857 -1.57142857 -3.57142857 -1.57142857 0 0 Z " fill="#F5DC53" transform="translate(310,307)"/>
<path d="M0 0 C0.58007812 0.40992188 1.16015625 0.81984375 1.7578125 1.2421875 C2.92957031 2.05042969 2.92957031 2.05042969 4.125 2.875 C5.27355469 3.67550781 5.27355469 3.67550781 6.4453125 4.4921875 C12.84506594 8.26941201 19.37118959 8.53982569 26.625 9.0625 C28.67990952 9.21712939 30.73460997 9.3745692 32.7890625 9.53515625 C33.69350098 9.600979 34.59793945 9.66680176 35.52978516 9.73461914 C37.77511177 9.97583974 39.82966916 10.38953511 42 11 C42 11.66 42 12.32 42 13 C40.61941406 13.16435547 40.61941406 13.16435547 39.2109375 13.33203125 C30.33959013 14.44320816 21.71858802 15.98491802 13 18 C13 16.02 13 14.04 13 12 C11.96875 11.835 10.9375 11.67 9.875 11.5 C4.9240663 10.12866195 2.45314704 6.31322557 0 2 C0 1.34 0 0.68 0 0 Z " fill="#F9C831" transform="translate(359,254)"/>
<path d="M0 0 C0.33 0 0.66 0 1 0 C1.08817767 4.43737164 1.14078435 8.87451347 1.1875 13.3125 C1.21263672 14.55580078 1.23777344 15.79910156 1.26367188 17.08007812 C1.40210572 34.66117683 1.40210572 34.66117683 -4.04296875 41.60546875 C-5.10451172 42.38857422 -5.10451172 42.38857422 -6.1875 43.1875 C-7.26064453 44.01314453 -7.26064453 44.01314453 -8.35546875 44.85546875 C-8.89816406 45.23316406 -9.44085938 45.61085938 -10 46 C-10.66 45.67 -11.32 45.34 -12 45 C-11.22011719 44.21367187 -10.44023437 43.42734375 -9.63671875 42.6171875 C-6.24625072 38.53237265 -5.62747032 34.26038473 -4.8125 29.125 C-4.65160889 28.20549561 -4.49071777 27.28599121 -4.32495117 26.33862305 C-3.1132587 19.23998633 -2.17056692 12.11541632 -1.39453125 4.95703125 C-1 2 -1 2 0 0 Z " fill="#E6BA4F" transform="translate(349,216)"/>
<path d="M0 0 C11.95615799 1.06751411 11.95615799 1.06751411 16 4 C17.18278696 6.33190026 17.84485762 8.49381695 18.4296875 11.0390625 C18.61789062 11.68617188 18.80609375 12.33328125 19 13 C19.66 13.33 20.32 13.66 21 14 C21 15.98 21 17.96 21 20 C20.34 20.33 19.68 20.66 19 21 C18.731875 20.401875 18.46375 19.80375 18.1875 19.1875 C17.1106021 16.95672092 17.1106021 16.95672092 15.375 15.375 C14.92125 14.92125 14.4675 14.4675 14 14 C14 13.34 14 12.68 14 12 C12.68 11.34 11.36 10.68 10 10 C10 9.01 10 8.02 10 7 C9.34 7 8.68 7 8 7 C8 6.34 8 5.68 8 5 C7.05125 4.9175 6.1025 4.835 5.125 4.75 C2 4 2 4 0.625 1.9375 C0.41875 1.298125 0.2125 0.65875 0 0 Z " fill="#F7E853" transform="translate(328,268)"/>
<path d="M0 0 C0.66 0.33 1.32 0.66 2 1 C2.4230957 2.87011719 2.4230957 2.87011719 2.67578125 5.296875 C2.78212891 6.1734375 2.88847656 7.05 2.99804688 7.953125 C3.20580416 9.80100347 3.40390584 11.64999598 3.59179688 13.5 C4.13570354 17.85125335 4.59966082 20.44617389 7.2109375 24.05859375 C10.36628859 26.25496559 12.51607044 26.85359093 16.3125 27.3125 C17.38113281 27.45300781 18.44976562 27.59351563 19.55078125 27.73828125 C20.35902344 27.82464844 21.16726563 27.91101563 22 28 C21 30 21 30 19.15234375 30.6328125 C18.05599609 30.87644531 18.05599609 30.87644531 16.9375 31.125 C16.20402344 31.29257813 15.47054688 31.46015625 14.71484375 31.6328125 C14.14894531 31.75398438 13.58304687 31.87515625 13 32 C13 31.34 13 30.68 13 30 C11.824375 30.0928125 11.824375 30.0928125 10.625 30.1875 C9.75875 30.125625 8.8925 30.06375 8 30 C7.34 29.01 6.68 28.02 6 27 C5.01 26.67 4.02 26.34 3 26 C3 25.01 3 24.02 3 23 C2.34 23 1.68 23 1 23 C1 19.04 1 15.08 1 11 C0.34 11 -0.32 11 -1 11 C-0.67 7.37 -0.34 3.74 0 0 Z " fill="#E7B83D" transform="translate(284,203)"/>
<path d="M0 0 C0.33 0 0.66 0 1 0 C1.66 5.61 2.32 11.22 3 17 C1 14 1 14 0 12 C-0.66 15.63 -1.32 19.26 -2 23 C-2.66 23 -3.32 23 -4 23 C-4.33 23.99 -4.66 24.98 -5 26 C-7.0625 26.6875 -7.0625 26.6875 -9 27 C-9 27.66 -9 28.32 -9 29 C-7.68 29.66 -6.36 30.32 -5 31 C-5.495 32.485 -5.495 32.485 -6 34 C-6.76183594 33.47599609 -6.76183594 33.47599609 -7.5390625 32.94140625 C-11.69405656 30.19475288 -14.90884805 28.3818364 -20 28 C-20 27.34 -20 26.68 -20 26 C-19.18015625 25.90203125 -18.3603125 25.8040625 -17.515625 25.703125 C-16.43796875 25.55359375 -15.3603125 25.4040625 -14.25 25.25 C-13.18265625 25.11078125 -12.1153125 24.9715625 -11.015625 24.828125 C-7.37233817 23.82763691 -6.14447006 23.11656469 -4 20 C-3.13359912 16.99390766 -2.71145436 13.97362715 -2.3125 10.875 C-2.08193582 9.24703855 -1.84897609 7.61941405 -1.61328125 5.9921875 C-1.51829346 5.27401855 -1.42330566 4.55584961 -1.32543945 3.81591797 C-1 2 -1 2 0 0 Z " fill="#E5BE4D" transform="translate(306,280)"/>
<path d="M0 0 C6.19703473 9.2955521 2.84284415 25.55475291 2 36 C1.01 35.67 0.02 35.34 -1 35 C-1.02472359 30.49764405 -1.04287119 25.99532764 -1.05493164 21.49291992 C-1.0599596 19.9613374 -1.06678284 18.42975967 -1.07543945 16.89819336 C-1.08757229 14.69643978 -1.09324367 12.49474967 -1.09765625 10.29296875 C-1.10281754 9.60849167 -1.10797882 8.92401459 -1.11329651 8.21879578 C-1.1136536 5.19093758 -0.96616619 2.89849858 0 0 Z " fill="#F9B02A" transform="translate(350,205)"/>
<path d="M0 0 C0.66 0 1.32 0 2 0 C2.19335938 1.22976562 2.38671875 2.45953125 2.5859375 3.7265625 C2.84869574 5.35941728 3.11173125 6.99222746 3.375 8.625 C3.50132812 9.43324219 3.62765625 10.24148437 3.7578125 11.07421875 C4.48899593 15.57099682 5.52410788 19.67774449 7 24 C6.625 26.375 6.625 26.375 6 28 C5.01 28 4.02 28 3 28 C0.38263677 21.49347698 -0.39871196 15.91832591 -0.1875 8.9375 C-0.17396484 8.07189453 -0.16042969 7.20628906 -0.14648438 6.31445312 C-0.1115933 4.20935826 -0.05780665 2.10459026 0 0 Z " fill="#E3C26C" transform="translate(352,227)"/>
<path d="M0 0 C0.66 0 1.32 0 2 0 C2 0.66 2 1.32 2 2 C2.66 2 3.32 2 4 2 C4 2.99 4 3.98 4 5 C5.98 4.01 7.96 3.02 10 2 C8.68 8.93 7.36 15.86 6 23 C3.74288438 20.74288438 3.64188026 20.02326363 3.18359375 16.97265625 C3.05919922 16.18052734 2.93480469 15.38839844 2.80664062 14.57226562 C2.62391602 13.32993164 2.62391602 13.32993164 2.4375 12.0625 C2.18830893 10.42806217 1.93708783 8.79393223 1.68359375 7.16015625 C1.57587646 6.43449463 1.46815918 5.70883301 1.35717773 4.96118164 C1.01062933 2.79667372 1.01062933 2.79667372 0 0 Z " fill="#CF9F36" transform="translate(301,314)"/>
<path d="M0 0 C0.99 0.33 1.98 0.66 3 1 C3.0578304 5.45827926 3.09353855 9.9164628 3.125 14.375 C3.14175781 15.64601563 3.15851563 16.91703125 3.17578125 18.2265625 C3.18222656 19.43828125 3.18867188 20.65 3.1953125 21.8984375 C3.20578613 23.01911621 3.21625977 24.13979492 3.22705078 25.29443359 C3 28 3 28 1 30 C-0.40912096 27.18175808 -0.11183553 24.82748718 -0.09765625 21.6796875 C-0.09443359 20.42285156 -0.09121094 19.16601562 -0.08789062 17.87109375 C-0.07951172 16.55238281 -0.07113281 15.23367188 -0.0625 13.875 C-0.05748489 12.53515789 -0.05292201 11.195314 -0.04882812 9.85546875 C-0.03701086 6.57026794 -0.02053617 3.28515603 0 0 Z " fill="#F7E054" transform="translate(349,294)"/>
<path d="M0 0 C-1 2 -1 2 -4.0625 3.125 C-5.031875 3.41375 -6.00125 3.7025 -7 4 C-6.01 4.99 -5.02 5.98 -4 7 C-4.87140625 6.79503906 -5.7428125 6.59007812 -6.640625 6.37890625 C-14.4388222 4.61502831 -22.01566019 3.42407666 -30 3 C-30 2.67 -30 2.34 -30 2 C-24.99835272 1.04616021 -20.07287717 0.69281808 -15 0.4375 C-13.82824219 0.37272461 -13.82824219 0.37272461 -12.6328125 0.30664062 C-8.41652829 0.0830498 -4.22392055 -0.04738372 0 0 Z " fill="#D59947" transform="translate(327,263)"/>
<path d="M0 0 C3.25031784 0.13923538 6.50016061 0.28754185 9.75 0.4375 C10.67039062 0.47681641 11.59078125 0.51613281 12.5390625 0.55664062 C13.42851562 0.59853516 14.31796875 0.64042969 15.234375 0.68359375 C16.45979004 0.73858032 16.45979004 0.73858032 17.70996094 0.79467773 C19.9034423 0.99134275 21.88396413 1.40300594 24 2 C24 2.66 24 3.32 24 4 C22.98679687 4.13277344 21.97359375 4.26554687 20.9296875 4.40234375 C19.57811796 4.58067584 18.22655586 4.75906425 16.875 4.9375 C16.20984375 5.02451172 15.5446875 5.11152344 14.859375 5.20117188 C10.89169812 5.72630558 6.94373002 6.31814014 3 7 C3.99 5.68 4.98 4.36 6 3 C3.03 2.505 3.03 2.505 0 2 C0 1.34 0 0.68 0 0 Z " fill="#DF8C27" transform="translate(377,263)"/>
<path d="M0 0 C0.33 0.99 0.66 1.98 1 3 C-0.1875 5.3125 -0.1875 5.3125 -2 8 C-2.556875 9.010625 -3.11375 10.02125 -3.6875 11.0625 C-6.57268 14.72745838 -9.62406439 16.47246601 -14 18 C-14.99 18 -15.98 18 -17 18 C-16.80078125 15.62890625 -16.80078125 15.62890625 -16 13 C-13.85546875 11.77734375 -13.85546875 11.77734375 -11.1875 10.9375 C-7.23739956 9.52876233 -4.53970818 8.49209875 -2 5 C-0.74563813 2.36777038 -0.74563813 2.36777038 0 0 Z " fill="#DBAD3D" transform="translate(343,249)"/>
<path d="M0 0 C0.66 0 1.32 0 2 0 C1.67 4.95 1.34 9.9 1 15 C0.34 15 -0.32 15 -1 15 C-1 15.66 -1 16.32 -1 17 C-3.31 17.33 -5.62 17.66 -8 18 C-7.0452856 15.87025249 -6.30591538 14.26686235 -4.53125 12.71875 C-2.48007489 10.41641059 -2.04784737 8.28890604 -1.3125 5.3125 C-1.06113281 4.31863281 -0.80976563 3.32476562 -0.55078125 2.30078125 C-0.36902344 1.54152344 -0.18726563 0.78226563 0 0 Z " fill="#E1C161" transform="translate(283,214)"/>
<path d="M0 0 C0.99 0 1.98 0 3 0 C4.33333333 1.33333333 5.66666667 2.66666667 7 4 C9.1381966 4.7872678 9.1381966 4.7872678 11 5 C11 5.66 11 6.32 11 7 C11.66 7 12.32 7 13 7 C13 7.99 13 8.98 13 10 C13.61875 10.04125 14.2375 10.0825 14.875 10.125 C17 11 17 11 18.3125 13.8125 C18.98272767 16.91991921 18.88024821 18.08061566 18 21 C17.731875 20.41992188 17.46375 19.83984375 17.1875 19.2421875 C13.52671856 11.94470871 9.02603351 8.26464385 2 4.3125 C1.34 3.879375 0.68 3.44625 0 3 C0 2.01 0 1.02 0 0 Z " fill="#DCAF3B" transform="translate(325,268)"/>
<path d="M0 0 C2.64 0.33 5.28 0.66 8 1 C8 1.66 8 2.32 8 3 C8.763125 3.20625 9.52625 3.4125 10.3125 3.625 C13.82229103 5.42070704 14.52599781 7.43136312 16 11 C13.03 10.505 13.03 10.505 10 10 C10 9.01 10 8.02 10 7 C9.34 7 8.68 7 8 7 C8 6.34 8 5.68 8 5 C7.05125 4.9175 6.1025 4.835 5.125 4.75 C2 4 2 4 0.625 1.9375 C0.41875 1.298125 0.2125 0.65875 0 0 Z " fill="#F7E675" transform="translate(328,268)"/>
<path d="M0 0 C0.33 0.99 0.66 1.98 1 3 C1.99 3.33 2.98 3.66 4 4 C3.071875 4.70125 2.14375 5.4025 1.1875 6.125 C-3.66122974 10.18466759 -5.262215 14.80260596 -6 21 C-6.33 21 -6.66 21 -7 21 C-7.50068405 14.24076526 -6.19036621 9.00727817 -3 3 C-1.36328125 1.20703125 -1.36328125 1.20703125 0 0 Z " fill="#F6D228" transform="translate(359,275)"/>
<path d="M0 0 C0.598125 0.20625 1.19625 0.4125 1.8125 0.625 C1.8125 1.285 1.8125 1.945 1.8125 2.625 C3.7925 2.625 5.7725 2.625 7.8125 2.625 C7.4825 3.285 7.1525 3.945 6.8125 4.625 C5.4925 4.295 4.1725 3.965 2.8125 3.625 C2.8125 4.615 2.8125 5.605 2.8125 6.625 C-0.0625 7.25 -0.0625 7.25 -3.1875 7.625 C-3.8475 6.965 -4.5075 6.305 -5.1875 5.625 C-5.1875 4.305 -5.1875 2.985 -5.1875 1.625 C-2.1875 -0.375 -2.1875 -0.375 0 0 Z " fill="#F7E761" transform="translate(308.1875,306.375)"/>
<path d="M0 0 C0.54527344 0.39832031 1.09054687 0.79664063 1.65234375 1.20703125 C6.90854387 4.89984877 11.79809675 7.32856508 18 9 C18 9.66 18 10.32 18 11 C19.98 11 21.96 11 24 11 C24.33 11.66 24.66 12.32 25 13 C16.43718053 12.4251811 7.12657683 10.69575984 1.1875 3.9375 C0 2 0 2 0 0 Z " fill="#F7AB2A" transform="translate(359,254)"/>
<path d="M0 0 C0.66 0.33 1.32 0.66 2 1 C2.6328125 3.94921875 2.6328125 3.94921875 3.125 7.6875 C3.29257812 8.90824219 3.46015625 10.12898437 3.6328125 11.38671875 C4.28767935 17.83088719 4.28767935 17.83088719 4 21 C3.01 21.66 2.02 22.32 1 23 C1 19.04 1 15.08 1 11 C0.34 11 -0.32 11 -1 11 C-0.67 7.37 -0.34 3.74 0 0 Z " fill="#CC9E44" transform="translate(284,203)"/>
<path d="M0 0 C2.14290201 3.21435301 3.48080508 6.45521186 5 10 C5.99 11.485 5.99 11.485 7 13 C6.67 13.66 6.34 14.32 6 15 C3 14 3 14 1.8125 11.9375 C1.544375 11.298125 1.27625 10.65875 1 10 C0.01 10 -0.98 10 -2 10 C-1.85950482 8.52031676 -1.71245174 7.04125484 -1.5625 5.5625 C-1.48128906 4.73878906 -1.40007812 3.91507812 -1.31640625 3.06640625 C-1 1 -1 1 0 0 Z " fill="#E8B42F" transform="translate(306,291)"/>
<path d="M0 0 C4.16435422 6.24653133 3.13682843 14.71768709 3 22 C2.34 22 1.68 22 1 22 C0.90912109 20.93458984 0.90912109 20.93458984 0.81640625 19.84765625 C0.73261719 18.92855469 0.64882813 18.00945312 0.5625 17.0625 C0.48128906 16.14597656 0.40007812 15.22945312 0.31640625 14.28515625 C0.23955024 12.03840268 0.23955024 12.03840268 -1 11 C-1.23529412 3.70588235 -1.23529412 3.70588235 0 0 Z " fill="#C18A44" transform="translate(350,205)"/>
<path d="M0 0 C-1.17755859 0.51046875 -1.17755859 0.51046875 -2.37890625 1.03125 C-8.84214562 4.0130635 -13.42918941 6.7912096 -17.79296875 12.4609375 C-18.19128906 12.96882813 -18.58960938 13.47671875 -19 14 C-19.33 14 -19.66 14 -20 14 C-20 12.35 -20 10.7 -20 9 C-19.01 8.67 -18.02 8.34 -17 8 C-16.67 7.01 -16.34 6.02 -16 5 C-15.01 5 -14.02 5 -13 5 C-13 4.34 -13 3.68 -13 3 C-11.5903653 2.29819469 -10.17192359 1.61406042 -8.75 0.9375 C-7.96109375 0.55464844 -7.1721875 0.17179687 -6.359375 -0.22265625 C-3.74006478 -1.08564091 -2.55144824 -0.93045933 0 0 Z " fill="#D59219" transform="translate(380,271)"/>
<path d="M0 0 C0.99 0.33 1.98 0.66 3 1 C6.1256626 1.26682486 9.250836 1.44459148 12.3828125 1.62109375 C13.24648438 1.74613281 14.11015625 1.87117188 15 2 C15.33 2.66 15.66 3.32 16 4 C15.39671875 4.13277344 14.7934375 4.26554687 14.171875 4.40234375 C13.37265625 4.57894531 12.5734375 4.75554687 11.75 4.9375 C10.56664062 5.19853516 10.56664062 5.19853516 9.359375 5.46484375 C7.23121297 5.947556 5.11467158 6.46163178 3 7 C3 6.34 3 5.68 3 5 C2.505 4.505 2.01 4.01 1.5 3.5 C1.005 3.005 0.51 2.51 0 2 C0 1.34 0 0.68 0 0 Z " fill="#CD963E" transform="translate(313,304)"/>
<path d="M0 0 C0.33 0 0.66 0 1 0 C1.66 5.61 2.32 11.22 3 17 C1 14 1 14 0 12 C-0.99 15.465 -0.99 15.465 -2 19 C-3.30574977 15.26665911 -2.7601248 12.22925049 -2.125 8.375 C-1.94195312 7.22773438 -1.75890625 6.08046875 -1.5703125 4.8984375 C-1 2 -1 2 0 0 Z " fill="#AF6A22" transform="translate(306,280)"/>
<path d="M0 0 C3.36307583 2.77453756 4.90064584 4.07269447 5.375 8.5 C5.06449038 11.39808979 4.68621699 14.1693549 4 17 C2.04020631 14.06030946 1.51679931 12.44977414 0.875 9.0625 C0.70742188 8.20785156 0.53984375 7.35320312 0.3671875 6.47265625 C0 4 0 4 0 0 Z " fill="#BE7922" transform="translate(282,247)"/>
<path d="M0 0 C0.66 0 1.32 0 2 0 C1.96591928 7.82152466 1.96591928 7.82152466 -0.40234375 10.7109375 C-2.0625 12.0625 -2.0625 12.0625 -5 14 C-5.66 13.67 -6.32 13.34 -7 13 C-6.21625 12.154375 -5.4325 11.30875 -4.625 10.4375 C-1.83068977 7.12074083 -0.92487099 4.20395906 0 0 Z " fill="#F7DD83" transform="translate(344,248)"/>
<path d="M0 0 C3 1 3 1 4 3 C6.52733235 3.65555119 6.52733235 3.65555119 9 4 C9 4.66 9 5.32 9 6 C7.9171875 6.12375 7.9171875 6.12375 6.8125 6.25 C3.44686746 7.14750201 1.58387184 8.7114278 -1 11 C-1 8 -1 8 0 6 C0.66 6 1.32 6 2 6 C2 4.68 2 3.36 2 2 C1.34 2 0.68 2 0 2 C0 1.34 0 0.68 0 0 Z " fill="#F9CD31" transform="translate(288,229)"/>
<path d="M0 0 C0.33 0 0.66 0 1 0 C0.67 5.94 0.34 11.88 0 18 C-0.66 17.67 -1.32 17.34 -2 17 C-2.4140625 14.27734375 -2.4140625 14.27734375 -2.625 10.9375 C-2.69976562 9.83277344 -2.77453125 8.72804688 -2.8515625 7.58984375 C-2.90054687 6.73519531 -2.94953125 5.88054687 -3 5 C-2.34 5 -1.68 5 -1 5 C-0.67 3.35 -0.34 1.7 0 0 Z " fill="#AE702B" transform="translate(352,317)"/>
<path d="M0 0 C1.86785156 0.01353516 1.86785156 0.01353516 3.7734375 0.02734375 C5.18496094 0.04474609 5.18496094 0.04474609 6.625 0.0625 C3.92942091 2.82192175 2.67759984 3.06149659 -1.265625 3.13671875 C-2.72012042 3.02432592 -4.17338312 2.89490522 -5.625 2.75 C-6.37007813 2.68876953 -7.11515625 2.62753906 -7.8828125 2.56445312 C-9.71482155 2.4117857 -11.54514316 2.23910246 -13.375 2.0625 C-13.375 1.7325 -13.375 1.4025 -13.375 1.0625 C-8.85684719 0.17972245 -4.59987306 -0.04339503 0 0 Z " fill="#9E703A" transform="translate(310.375,263.9375)"/>
<path d="M0 0 C1.32 0.66 2.64 1.32 4 2 C2.576875 3.051875 2.576875 3.051875 1.125 4.125 C-1.99854626 6.69603218 -3.07381296 9.01739573 -4 13 C-4.33 13 -4.66 13 -5 13 C-5.602537 6.97463002 -5.602537 6.97463002 -3.88671875 4.19921875 C-2.65378147 2.74400545 -1.33191067 1.36520843 0 0 Z " fill="#C89C39" transform="translate(293,234)"/>
<path d="M0 0 C1.04449911 3.13349732 0.93423645 3.98968256 0 7 C-2.31 7.33 -4.62 7.66 -7 8 C-5.50902342 4.2047869 -3.24299151 2.38957269 0 0 Z " fill="#EDD479" transform="translate(282,224)"/>
<path d="M0 0 C3.3 0.33 6.6 0.66 10 1 C10 1.66 10 2.32 10 3 C4.06 3.495 4.06 3.495 -2 4 C-1.34 2.68 -0.68 1.36 0 0 Z " fill="#A76023" transform="translate(391,264)"/>
<path d="M0 0 C2.31 0.33 4.62 0.66 7 1 C4.17446016 5.23830976 1.87819112 4.97715348 -3 6 C-2.67 5.01 -2.34 4.02 -2 3 C-1.01 2.67 -0.02 2.34 1 2 C0.67 1.34 0.34 0.68 0 0 Z " fill="#F6BF2A" transform="translate(375,266)"/>
<path d="M0 0 C0.58007812 0.40992188 1.16015625 0.81984375 1.7578125 1.2421875 C6.06084535 4.21028607 9.8686189 6.68426126 15 8 C15 8.33 15 8.66 15 9 C4.7260274 7.97260274 4.7260274 7.97260274 1.25 4 C0 2 0 2 0 0 Z " fill="#DC9A26" transform="translate(359,254)"/>
<path d="M0 0 C4.29 0 8.58 0 13 0 C12 2 12 2 10.15234375 2.6328125 C9.42144531 2.79523438 8.69054687 2.95765625 7.9375 3.125 C6.83728516 3.37636719 6.83728516 3.37636719 5.71484375 3.6328125 C5.14894531 3.75398437 4.58304687 3.87515625 4 4 C4 3.34 4 2.68 4 2 C2.35 2 0.7 2 -1 2 C-0.67 1.34 -0.34 0.68 0 0 Z " fill="#CE9636" transform="translate(293,231)"/>
<path d="M0 0 C0.33 0 0.66 0 1 0 C1 4.62 1 9.24 1 14 C0.01 13.67 -0.98 13.34 -2 13 C-2 11.35 -2 9.7 -2 8 C-1.34 8 -0.68 8 0 8 C0 5.36 0 2.72 0 0 Z " fill="#FBC532" transform="translate(351,227)"/>
<path d="M0 0 C1.9451 2.91765 2.45276317 4.62537285 3 8 C2.01 7.67 1.02 7.34 0 7 C-0.66 7.99 -1.32 8.98 -2 10 C-1.85950482 8.52031676 -1.71245174 7.04125484 -1.5625 5.5625 C-1.48128906 4.73878906 -1.40007812 3.91507812 -1.31640625 3.06640625 C-1 1 -1 1 0 0 Z " fill="#F4A91F" transform="translate(306,291)"/>
<path d="M0 0 C2.97 0 5.94 0 9 0 C9 1.32 9 2.64 9 4 C4.545 3.01 4.545 3.01 0 2 C0 1.34 0 0.68 0 0 Z " fill="#AD7C3D" transform="translate(286,306)"/>
<path d="M0 0 C0.33 1.32 0.66 2.64 1 4 C0.34 4 -0.32 4 -1 4 C-1.33 4.99 -1.66 5.98 -2 7 C-3.98 7 -5.96 7 -8 7 C-7.01 6.34 -6.02 5.68 -5 5 C-3.31384218 3.35305515 -1.64429829 1.68873879 0 0 Z " fill="#CD993B" transform="translate(303,299)"/>
<path d="M0 0 C1.32 0.33 2.64 0.66 4 1 C6.08878929 4.68024779 6.06126775 5.75492899 5 10 C3.35 6.7 1.7 3.4 0 0 Z " fill="#D39521" transform="translate(338,279)"/>
<path d="M0 0 C2.64 0 5.28 0 8 0 C8 0.66 8 1.32 8 2 C8.66 2 9.32 2 10 2 C10 2.66 10 3.32 10 4 C6.7 3.01 3.4 2.02 0 1 C0 0.67 0 0.34 0 0 Z " fill="#B57E30" transform="translate(264,231)"/>
<path d="M0 0 C0.33 0 0.66 0 1 0 C1.24954005 1.43410368 1.47392642 2.87260072 1.6875 4.3125 C1.87892578 5.51326172 1.87892578 5.51326172 2.07421875 6.73828125 C2 9 2 9 -1 12 C-0.67 8.04 -0.34 4.08 0 0 Z " fill="#F7E07E" transform="translate(347,235)"/>
<path d="M0 0 C1.5625 1.125 1.5625 1.125 3 3 C2.6875 6.1875 2.6875 6.1875 2 9 C0 7 0 7 -0.125 3.375 C-0.08375 2.26125 -0.0425 1.1475 0 0 Z " fill="#F1B752" transform="translate(349,315)"/>
<path d="M0 0 C2 3 2 3 2 6 C0.35 6.66 -1.3 7.32 -3 8 C-2.01 5.36 -1.02 2.72 0 0 Z " fill="#F6DA38" transform="translate(306,300)"/>
</svg>
